<svg id="Layer_1" enable-background="new 0 0 512 512" height="512" viewBox="0 0 512 512" width="512" xmlns="http://www.w3.org/2000/svg"><g><path d="m256 153.93c-45.403 0-102.635-26.174-102.635-76.969 0-51.1 57.57-76.961 102.635-76.961 45.402 0 102.636 26.134 102.636 76.961 0 51.003-57.418 76.969-102.636 76.969z" fill="#f1e3e2"/><path d="m358.636 76.961c0-50.827-57.234-76.961-102.636-76.961v153.93c45.218 0 102.636-25.966 102.636-76.969z" fill="#e5d1cd"/><path d="m153.246 320.757c-27.825-9.499-47.036-29.238-54.093-55.582s-.291-53.043 19.054-75.181c21.669-24.799 58.824-44.384 110.431-58.21 51.607-13.827 93.577-15.442 124.744-4.802 27.825 9.499 47.035 29.236 54.093 55.575 7.058 26.343.29 53.043-19.056 75.182-21.67 24.799-58.824 44.383-110.427 58.21-42.993 11.522-88.778 17.088-124.746 4.808z" fill="#504678"/><path d="m388.417 257.739c19.346-22.139 26.114-48.839 19.056-75.182-7.058-26.339-26.268-46.076-54.093-55.575-25.461-8.692-58.135-9.201-97.38-1.559v195.797c7.369-1.55 14.72-3.323 21.99-5.271 51.603-13.826 88.757-33.411 110.427-58.21z" fill="#2c2d4c"/><path d="m256 512c-75.283 0-132.756-10.281-170.822-30.557-34.207-18.22-53.045-45.421-53.045-76.594s18.838-58.374 53.045-76.594c38.066-20.276 95.539-30.557 170.822-30.557s132.756 10.281 170.822 30.557c34.206 18.22 53.044 45.421 53.044 76.594s-18.838 58.374-53.044 76.594c-38.066 20.276-95.539 30.557-170.822 30.557z" fill="#f1e3e2"/><path d="m479.867 404.85c0-31.173-18.838-58.374-53.044-76.594-38.067-20.276-95.54-30.557-170.823-30.557v214.301c75.283 0 132.756-10.281 170.822-30.557 34.206-18.219 53.045-45.421 53.045-76.593z" fill="#e5d1cd"/><path d="m497 512h-482c-8.284 0-15-6.716-15-15s6.716-15 15-15h482c8.284 0 15 6.716 15 15s-6.716 15-15 15z" fill="#98f1be"/><path d="m512 497c0-8.284-6.716-15-15-15h-241v30h241c8.284 0 15-6.716 15-15z" fill="#5fe1ba"/></g></svg>