<svg id="Layer_1" enable-background="new 0 0 512 512" height="512" viewBox="0 0 512 512" width="512" xmlns="http://www.w3.org/2000/svg"><g><circle cx="256" cy="256" fill="#00c6dc" r="256"/><path d="m437.019 74.981-362.038 362.038c99.974 99.974 262.065 99.974 362.039 0s99.974-262.064-.001-362.038z" fill="#00a8be"/><path d="m1.324 230.049c-1.4 13.823-1.674 27.737-.83 41.597l239.858 239.861c13.86.844 27.773.571 41.596-.83z" fill="#00d9f0"/><path d="m10.873 182.049 319.075 319.079c10.486-3.154 20.807-7.001 30.898-11.528l-338.444-338.449c-4.527 10.091-8.375 20.411-11.529 30.898z" fill="#00d9f0"/><path d="m42.889 114.09 355.019 355.023c8.32-5.553 16.389-11.641 24.153-18.273l-360.899-360.903c-6.632 7.764-12.719 15.832-18.273 24.153z" fill="#00d9f0"/><path d="m89.939 61.16 360.899 360.903c6.632-7.764 12.72-15.833 18.273-24.153l-355.019-355.022c-8.32 5.553-16.389 11.64-24.153 18.272z" fill="#00d9f0"/><path d="m151.154 22.4 338.445 338.448c4.527-10.091 8.375-20.412 11.528-30.898l-319.075-319.078c-10.487 3.154-20.807 7.002-30.898 11.528z" fill="#00d9f0"/><path d="m230.052 1.323 280.624 280.628c1.4-13.823 1.674-27.737.83-41.596l-239.858-239.861c-13.86-.844-27.773-.571-41.596.829z" fill="#00d9f0"/><g fill="#00c6dc"><path d="m370.363 141.637 140.313 140.315c1.4-13.823 1.674-27.737.83-41.596l-119.93-119.931z"/><path d="m320.376 191.624 169.223 169.225c4.527-10.091 8.375-20.412 11.528-30.898l-159.538-159.54z"/><path d="m270.388 241.612 180.45 180.452c6.632-7.764 12.72-15.833 18.273-24.153l-177.51-177.511z"/><path d="m397.908 469.113c8.32-5.553 16.389-11.641 24.153-18.273l-180.449-180.452-21.213 21.213z"/><path d="m329.949 501.127c10.486-3.154 20.807-7.001 30.898-11.528l-169.223-169.224-21.213 21.213z"/><path d="m240.352 511.506c13.86.844 27.773.571 41.596-.83l-140.311-140.313-21.213 21.213z"/></g></g></svg>