<svg xmlns="http://www.w3.org/2000/svg" xmlns:xlink="http://www.w3.org/1999/xlink" width="410" height="410" viewBox="0 0 410 410">
  <defs>
    <linearGradient id="linear-gradient" y1="0.5" x2="1" y2="0.5" gradientUnits="objectBoundingBox">
      <stop offset="0" stop-color="#d673d0"/>
      <stop offset="1" stop-color="#b078e8"/>
    </linearGradient>
  </defs>
  <g id="main-logo" transform="translate(-1269 -335)">
    <circle id="Ellipse_1" data-name="Ellipse 1" cx="205" cy="205" r="205" transform="translate(1269 335)" fill="url(#linear-gradient)"/>
    <g id="_013-sahasrara" data-name="013-sahasrara" transform="translate(1346.057 412.055)">
      <path id="Path_1" data-name="Path 1" d="M312.8,459.411c-.808-.1-19.989-2.6-37.239-12.12a7.5,7.5,0,0,1-1.335-12.188c8.567-7.551,14.4-15.494,16.859-22.971a7.5,7.5,0,0,1,10.5-4.348c7.023,3.543,16.764,5.04,28.165,4.322a7.5,7.5,0,0,1,7.672,9.563c-5.468,18.925-17.261,34.257-17.76,34.9A7.523,7.523,0,0,1,312.8,459.411Z" transform="translate(-135.902 -203.577)" fill="#8130ab"/>
      <path id="Path_2" data-name="Path 2" d="M126.256,456.57c-.5-.643-12.293-15.975-17.76-34.9a7.5,7.5,0,0,1,7.672-9.563c11.4.716,21.142-.778,28.165-4.322a7.5,7.5,0,0,1,10.5,4.348c2.463,7.477,8.293,15.42,16.86,22.971a7.5,7.5,0,0,1-1.335,12.188c-17.251,9.518-36.432,12.018-37.24,12.12a7.526,7.526,0,0,1-6.859-2.842Z" transform="translate(-54.124 -203.577)" fill="#b25fc5"/>
      <path id="Path_3" data-name="Path 3" d="M37.8,337.421c-18.927-5.467-34.259-17.258-34.9-17.757A7.5,7.5,0,0,1,.059,312.8c.1-.808,2.6-19.988,12.122-37.24a7.5,7.5,0,0,1,12.188-1.336c7.552,8.568,15.5,14.4,22.969,16.859a7.5,7.5,0,0,1,4.349,10.5c-3.544,7.027-5.038,16.765-4.321,28.164a7.5,7.5,0,0,1-9.562,7.674Z" transform="translate(-0.001 -135.901)" fill="#b25fc5"/>
      <path id="Path_4" data-name="Path 4" d="M414.89,336.066a7.5,7.5,0,0,1-2.79-6.318c.719-11.4-.776-21.137-4.32-28.164a7.5,7.5,0,0,1,4.348-10.5c7.475-2.462,15.418-8.292,22.969-16.859a7.5,7.5,0,0,1,12.188,1.335C456.8,292.816,459.305,312,459.407,312.8a7.5,7.5,0,0,1-2.842,6.861c-.643.5-15.975,12.29-34.9,17.757a7.522,7.522,0,0,1-6.772-1.356Z" transform="translate(-203.575 -135.902)" fill="#8130ab"/>
      <path id="Path_5" data-name="Path 5" d="M17.928,174.184a7.5,7.5,0,0,1-5.748-3.83C2.663,153.106.161,133.925.059,133.117a7.5,7.5,0,0,1,2.841-6.86c.644-.5,15.976-12.295,34.9-17.761a7.5,7.5,0,0,1,9.562,7.674c-.718,11.4.776,21.137,4.321,28.164a7.5,7.5,0,0,1-4.349,10.5c-7.474,2.461-15.417,8.291-22.969,16.859a7.523,7.523,0,0,1-6.441,2.495Z" transform="translate(-0.001 -54.124)" fill="#b25fc5"/>
      <path id="Path_6" data-name="Path 6" d="M435.1,171.69c-7.551-8.567-15.493-14.4-22.969-16.859a7.5,7.5,0,0,1-4.348-10.5c3.544-7.027,5.038-16.765,4.32-28.164a7.5,7.5,0,0,1,9.562-7.674c18.928,5.467,34.26,17.262,34.9,17.761a7.5,7.5,0,0,1,2.841,6.86c-.1.808-2.6,19.989-12.122,37.237A7.5,7.5,0,0,1,435.1,171.69Z" transform="translate(-203.576 -54.125)" fill="#8130ab"/>
      <path id="Path_7" data-name="Path 7" d="M144.334,51.687c-7.033-3.546-16.769-5.039-28.164-4.319a7.5,7.5,0,0,1-7.675-9.562c5.468-18.929,17.261-34.261,17.76-34.9A7.493,7.493,0,0,1,133.117.06c.808.1,19.988,2.606,37.238,12.124a7.5,7.5,0,0,1,1.335,12.188c-8.567,7.55-14.4,15.493-16.86,22.968a7.5,7.5,0,0,1-10.5,4.348Z" transform="translate(-54.124 0)" fill="#b25fc5"/>
      <path id="Path_8" data-name="Path 8" d="M295.338,51.919a7.5,7.5,0,0,1-4.251-4.58c-2.463-7.475-8.293-15.417-16.86-22.968a7.5,7.5,0,0,1,1.335-12.188C292.813,2.665,311.993.16,312.8.059A7.493,7.493,0,0,1,319.661,2.9c.5.644,12.293,15.976,17.761,34.9a7.5,7.5,0,0,1-7.676,9.563c-11.393-.719-21.131.773-28.164,4.319a7.521,7.521,0,0,1-6.244.232Z" transform="translate(-135.902 0)" fill="#8130ab"/>
      <path id="Path_9" data-name="Path 9" d="M127.945,255.891a7.491,7.491,0,0,1-3.713-.984c-1.084-.618-24.092-13.917-34.659-34.323-21.9,6.957-47.576.091-48.779-.238a7.5,7.5,0,0,1-5.25-5.25c-.329-1.2-7.195-26.875-.237-48.778C14.9,155.751,1.6,132.741.982,131.657a7.5,7.5,0,0,1,0-7.425c.618-1.084,13.918-24.09,34.324-34.659-6.957-21.9-.092-47.575.237-48.778a7.5,7.5,0,0,1,5.25-5.25c1.2-.329,26.877-7.2,48.779-.238C100.14,14.9,123.148,1.6,124.231.983a7.5,7.5,0,0,1,7.425,0c1.084.618,24.092,13.918,34.66,34.323,21.9-6.956,47.575-.091,48.779.238a7.5,7.5,0,0,1,5.25,5.25c.329,1.2,7.195,26.876.238,48.778,20.406,10.569,33.706,33.575,34.323,34.659a7.5,7.5,0,0,1,0,7.425c-.618,1.084-13.917,24.093-34.323,34.66,6.957,21.9.091,47.574-.238,48.778a7.5,7.5,0,0,1-5.25,5.25c-1.2.329-26.878,7.195-48.779.238-10.568,20.406-33.576,33.706-34.66,34.323a7.485,7.485,0,0,1-3.712.984Z" transform="translate(0 0)" fill="#8130ab"/>
      <path id="Path_10" data-name="Path 10" d="M294.373,220.584c21.9,6.957,47.575.091,48.779-.238a7.5,7.5,0,0,0,5.25-5.25c.329-1.2,7.195-26.875.238-48.778,20.407-10.566,33.705-33.576,34.323-34.66a7.5,7.5,0,0,0,0-7.425c-.617-1.084-13.917-24.09-34.323-34.659,6.958-21.9.092-47.575-.238-48.778a7.5,7.5,0,0,0-5.25-5.25c-1.2-.329-26.877-7.195-48.779-.238C283.8,14.9,260.8,1.6,259.713.984A7.494,7.494,0,0,0,256,0V255.891a7.5,7.5,0,0,0,3.713-.984C260.8,254.29,283.8,240.991,294.373,220.584Z" transform="translate(-128.055 0)" fill="#542685"/>
      <path id="Path_11" data-name="Path 11" d="M131.113,255.924a7.5,7.5,0,0,1-5.921-2.9,84.118,84.118,0,0,1-7.738-12.561,62.14,62.14,0,0,1-6.582-20.385A62.137,62.137,0,0,1,90.487,213.5a84.213,84.213,0,0,1-12.562-7.739,7.5,7.5,0,0,1-2.841-6.86,84.172,84.172,0,0,1,3.411-14.354,62.144,62.144,0,0,1,9.76-19.068,62.143,62.143,0,0,1-9.76-19.068,84.161,84.161,0,0,1-3.411-14.354,7.5,7.5,0,0,1,2.842-6.86,84.155,84.155,0,0,1,12.562-7.737,62.154,62.154,0,0,1,20.385-6.582,62.148,62.148,0,0,1,6.582-20.385,84.131,84.131,0,0,1,7.738-12.562,7.494,7.494,0,0,1,6.86-2.842,84.114,84.114,0,0,1,14.354,3.411,62.13,62.13,0,0,1,19.068,9.761,62.136,62.136,0,0,1,19.068-9.761A84.1,84.1,0,0,1,198.9,75.083a7.5,7.5,0,0,1,6.86,2.842A84.248,84.248,0,0,1,213.5,90.487a62.142,62.142,0,0,1,6.582,20.384,62.171,62.171,0,0,1,20.385,6.583,84.2,84.2,0,0,1,12.562,7.737,7.5,7.5,0,0,1,2.842,6.86,84.074,84.074,0,0,1-3.411,14.354,62.155,62.155,0,0,1-9.76,19.068,62.155,62.155,0,0,1,9.76,19.068,84.085,84.085,0,0,1,3.411,14.354,7.5,7.5,0,0,1-2.841,6.86,84.181,84.181,0,0,1-12.562,7.739,62.137,62.137,0,0,1-20.385,6.582,62.152,62.152,0,0,1-6.582,20.385,84.238,84.238,0,0,1-7.738,12.562,7.5,7.5,0,0,1-6.86,2.841,84.149,84.149,0,0,1-14.355-3.411,62.142,62.142,0,0,1-19.068-9.759,62.143,62.143,0,0,1-19.068,9.759,84.2,84.2,0,0,1-14.354,3.411A7.532,7.532,0,0,1,131.113,255.924Z" transform="translate(-37.529 -37.528)" fill="#b25fc5"/>
      <path id="Path_12" data-name="Path 12" d="M289.423,255.865a7.5,7.5,0,0,0,6.86-2.841,84.2,84.2,0,0,0,7.738-12.562,62.15,62.15,0,0,0,6.582-20.385,62.136,62.136,0,0,0,20.385-6.582,84.181,84.181,0,0,0,12.562-7.739,7.5,7.5,0,0,0,2.841-6.86,84.07,84.07,0,0,0-3.411-14.354,62.154,62.154,0,0,0-9.76-19.068,62.154,62.154,0,0,0,9.76-19.068,84.082,84.082,0,0,0,3.411-14.354,7.5,7.5,0,0,0-2.842-6.86,84.155,84.155,0,0,0-12.562-7.737,62.171,62.171,0,0,0-20.385-6.583,62.142,62.142,0,0,0-6.582-20.384,84.248,84.248,0,0,0-7.738-12.562,7.5,7.5,0,0,0-6.86-2.842,84.125,84.125,0,0,0-14.355,3.411A62.13,62.13,0,0,0,256,88.255V242.695a62.137,62.137,0,0,0,19.068,9.759A84.151,84.151,0,0,0,289.423,255.865Z" transform="translate(-128.055 -37.528)" fill="#8130ab"/>
      <ellipse id="Ellipse_2" data-name="Ellipse 2" cx="47.646" cy="47.647" rx="47.646" ry="47.647" transform="translate(65.727 102.143) rotate(-22.514)" fill="#e994e2"/>
      <path id="Path_13" data-name="Path 13" d="M303.646,208.313A47.7,47.7,0,0,0,256,160.667V255.96A47.7,47.7,0,0,0,303.646,208.313Z" transform="translate(-128.055 -80.368)" fill="#b25fc5"/>
    </g>
  </g>
</svg>
